# xmcd
#
# Track frame offsets:
#	150
#	8388
#	25649
#	65170
#	81673
#	104217
#	133282
#	169894
#	215701
#	235351
#	279413
#
# Disc length: 4295 seconds
#
# Revision: 0
# Processed by: cddbd v1.5.2PL0 Copyright (c) Steve Scherf et al.
# Submitted via: EasyCDDAExtractor 16.0.8.1
#
DISCID=a510c50b
DTITLE=Fritzi Pferdeglück 3 - Der große Preis vom Heidehof
DYEAR=2014
DGENRE=Hörbuch
TTITLE0=Hier kommt Fritzi (Lied)
TTITLE1=Im Pferdekram-Kaufrausch
TTITLE2=Widersehen mit Julie
TTITLE3=Das Zimmer-Desaster
TTITLE4=Eine große Überaschung
TTITLE5=Die erste Reitschunde
TTITLE6=Ein auregender Morgen
TTITLE7=Ein heimlicher Ausflug
TTITLE8=Rache ist Blutwurst
TTITLE9=Der Prüfungstag
TTITLE10=Eine große Enttäuschung 
EXTD=
EXTT0=
EXTT1=
EXTT2=
EXTT3=
EXTT4=
EXTT5=
EXTT6=
EXTT7=
EXTT8=
EXTT9=
EXTT10=
PLAYORDER=
